<svg width="40" height="40" viewBox="0 0 40 40" xmlns="http://www.w3.org/2000/svg" role="img" aria-label="Skill Inspector plugin icon">
    <defs>
        <linearGradient id="docBg" x1="8" y1="5" x2="29" y2="33" gradientUnits="userSpaceOnUse">
            <stop offset="0" stop-color="#EEF7FF"/>
            <stop offset="1" stop-color="#C8D7EA"/>
        </linearGradient>
        <linearGradient id="fold" x1="24" y1="6" x2="32" y2="14" gradientUnits="userSpaceOnUse">
            <stop offset="0" stop-color="#FFFFFF"/>
            <stop offset="1" stop-color="#9DB6D4"/>
        </linearGradient>
        <linearGradient id="lens" x1="20" y1="18" x2="34" y2="34" gradientUnits="userSpaceOnUse">
            <stop offset="0" stop-color="#37C7FF"/>
            <stop offset="1" stop-color="#2563EB"/>
        </linearGradient>
        <linearGradient id="check" x1="18" y1="27" x2="31" y2="27" gradientUnits="userSpaceOnUse">
            <stop offset="0" stop-color="#78F7B2"/>
            <stop offset="1" stop-color="#18B981"/>
        </linearGradient>
        <filter id="softShadow" x="-20%" y="-20%" width="140%" height="140%">
            <feDropShadow dx="0" dy="1" stdDeviation="1.2" flood-color="#0F172A" flood-opacity="0.28"/>
        </filter>
    </defs>
    <path d="M9 5.5h17.5L32.5 12v21.5c0 .8-.7 1.5-1.5 1.5H9c-.8 0-1.5-.7-1.5-1.5V7c0-.8.7-1.5 1.5-1.5Z" fill="url(#docBg)" stroke="#334155"
          stroke-width="1.4" filter="url(#softShadow)"/>
    <path d="M26.3 5.8V12c0 .7.6 1.3 1.3 1.3h4.7L26.3 5.8Z" fill="url(#fold)" stroke="#334155" stroke-width="1.1" stroke-linejoin="round"/>
    <rect x="11.5" y="13" width="10.5" height="2.2" rx="1.1" fill="#2563EB"/>
    <rect x="11.5" y="18" width="14.5" height="1.8" rx="0.9" fill="#64748B" opacity="0.88"/>
    <rect x="11.5" y="22" width="9.5" height="1.8" rx="0.9" fill="#64748B" opacity="0.7"/>
    <circle cx="13" cy="28.5" r="1.3" fill="#F59E0B"/>
    <rect x="16" y="27.6" width="8" height="1.8" rx="0.9" fill="#64748B" opacity="0.68"/>
    <circle cx="25.2" cy="24.8" r="7.3" fill="url(#lens)" stroke="#0F172A" stroke-width="1.5"/>
    <circle cx="25.2" cy="24.8" r="4.8" fill="#E0F7FF" opacity="0.34"/>
    <path d="M30.3 30.1l4.2 4.2" stroke="#0F172A" stroke-width="4.2" stroke-linecap="round"/>
    <path d="M30.3 30.1l4.2 4.2" stroke="#3B82F6" stroke-width="2.2" stroke-linecap="round"/>
    <path d="M21.3 24.8l2.4 2.5 5.4-5.7" fill="none" stroke="url(#check)" stroke-width="2.6" stroke-linecap="round"
          stroke-linejoin="round"/>
    <path d="M21.3 24.8l2.4 2.5 5.4-5.7" fill="none" stroke="#052E1A" stroke-opacity="0.35" stroke-width="1" stroke-linecap="round"
          stroke-linejoin="round"/>
</svg>
